# xmcd
#
# Track frame offsets: 
#        150
#        20436
#        42711
#        60418
#        78117
#        96155
#
# Disc length: 1507 seconds
#
# Revision: 2
# Processed by: cddbd v1.5.2PL0 Copyright (c) Steve Scherf et al.
# Submitted via: ExactAudioCopy v1.3
#
DISCID=4105e106
DTITLE=GoGo and MeMe - Forever And Ever CD1
DYEAR=2004
DGENRE=Pop
TTITLE0=夏天結束前
TTITLE1=不要說再見
TTITLE2=自從你出現
TTITLE3=我的生日
TTITLE4=愛情假期
TTITLE5=不想和你在一起
EXTD=
EXTT0=
EXTT1=
EXTT2=
EXTT3=
EXTT4=
EXTT5=
PLAYORDER=
